# Blender v2.78 (sub 0) OBJ File: 'untitled.blend'
# www.blender.org
o Cube
v 0.057487 -1.963363 0.108794
v 0.057487 0.036637 0.108794
v 0.057487 -1.963363 -0.091206
v 0.057487 0.036637 -0.091206
v 2.057487 -1.963363 0.108794
v 2.057487 0.036637 0.108794
v 2.057487 -1.963363 -0.091206
v 2.057487 0.036637 -0.091206
vn -1.0000 0.0000 0.0000
vn 0.0000 0.0000 -1.0000
vn 1.0000 0.0000 0.0000
vn 0.0000 0.0000 1.0000
vn 0.0000 -1.0000 0.0000
vn 0.0000 1.0000 0.0000
s off
f 2/1/1 3/1/1 1/1/1
f 4/1/2 7/1/2 3/1/2
f 8/1/3 5/1/3 7/1/3
f 6/1/4 1/1/4 5/1/4
f 7/1/5 1/1/5 3/1/5
f 4/1/6 6/1/6 8/1/6
f 2/1/1 4/1/1 3/1/1
f 4/1/2 8/1/2 7/1/2
f 8/1/3 6/1/3 5/1/3
f 6/1/4 2/1/4 1/1/4
f 7/1/5 5/1/5 1/1/5
f 4/1/6 2/1/6 6/1/6
o Plane
v 5.043903 0.050007 -5.009666
v 0.033256 0.050007 -5.009666
v 5.043903 0.050007 0.000981
v 0.033256 0.050007 0.000981
vn 0.0000 1.0000 0.0000
s off
f 10/1/7 11/1/7 9/1/7
f 10/1/7 12/1/7 11/1/7
o Plane.001_Plane.002
v 5.043903 0.050007 0.003468
v 0.033256 0.050007 0.003468
v 5.043903 0.050007 5.014115
v 0.033256 0.050007 5.014115
vn 0.0000 1.0000 0.0000
s off
f 14/1/8 15/1/8 13/1/8
f 14/1/8 16/1/8 15/1/8
o Plane.002_Plane.003
v 0.038281 -0.968535 -4.996532
v 0.038281 0.068548 -4.996532
v 0.038281 -0.968535 0.014115
v 0.038281 0.068548 0.014115
vn 1.0000 0.0000 0.0000
s off
f 18/1/9 19/1/9 17/1/9
f 18/1/9 20/1/9 19/1/9
o Plane.003_Plane.004
v 5.043903 0.050007 0.995182
v 0.033256 0.050007 0.995182
v 5.043903 0.050007 6.005830
v 0.033256 0.050007 6.005830
vn 0.0000 1.0000 0.0000
s off
f 22/1/10 23/1/10 21/1/10
f 22/1/10 24/1/10 23/1/10
o Plane.004_Plane.005
v 0.043605 0.050007 0.972490
v -4.967043 0.050007 0.972490
v 0.043605 0.050007 5.983137
v -4.967043 0.050007 5.983137
vn 0.0000 1.0000 0.0000
s off
f 26/1/11 27/1/11 25/1/11
f 26/1/11 28/1/11 27/1/11
o Plane.005_Plane.008
v 0.043605 0.050007 0.003468
v -4.967043 0.050007 0.003468
v 0.043605 0.050007 5.014115
v -4.967043 0.050007 5.014115
vn 0.0000 1.0000 0.0000
s off
f 30/1/12 31/1/12 29/1/12
f 30/1/12 32/1/12 31/1/12
o Plane.006_Plane.009
v 0.043605 0.050007 0.003468
v -4.967043 0.050007 0.003468
v 0.043605 0.050007 5.014115
v -4.967043 0.050007 5.014115
vn 0.0000 1.0000 0.0000
s off
f 34/1/13 35/1/13 33/1/13
f 34/1/13 36/1/13 35/1/13
o Plane.007_Plane.001
v 0.038281 -1.968535 -4.996532
v 0.038281 -0.931452 -4.996532
v 0.038281 -1.968535 0.014115
v 0.038281 -0.931452 0.014115
vn 1.0000 0.0000 0.0000
s off
f 38/1/14 39/1/14 37/1/14
f 38/1/14 40/1/14 39/1/14
o Plane.008_Plane.006
v 5.038281 -0.968535 -4.996532
v 5.038281 0.068548 -4.996532
v 5.038281 -0.968535 0.014115
v 5.038281 0.068548 0.014115
vn 1.0000 0.0000 0.0000
s off
f 42/1/15 43/1/15 41/1/15
f 42/1/15 44/1/15 43/1/15
o Plane.009_Plane.007
v 5.038281 -1.968535 -4.996532
v 5.038281 -0.931452 -4.996532
v 5.038281 -1.968535 0.014115
v 5.038281 -0.931452 0.014115
vn 1.0000 0.0000 0.0000
s off
f 46/1/16 47/1/16 45/1/16
f 46/1/16 48/1/16 47/1/16
o Plane.010
v 5.038281 -1.968535 0.003467
v 5.038281 -0.931452 0.003467
v 5.038281 -1.968535 5.014115
v 5.038281 -0.931452 5.014115
vn 1.0000 0.0000 0.0000
s off
f 50/1/17 51/1/17 49/1/17
f 50/1/17 52/1/17 51/1/17
o Plane.011
v 5.038281 -1.968535 1.003467
v 5.038281 -0.931452 1.003467
v 5.038281 -1.968535 6.014115
v 5.038281 -0.931452 6.014115
vn 1.0000 0.0000 0.0000
s off
f 54/1/18 55/1/18 53/1/18
f 54/1/18 56/1/18 55/1/18
o Plane.012
v 5.038281 -0.968535 0.003467
v 5.038281 0.068548 0.003467
v 5.038281 -0.968535 5.014115
v 5.038281 0.068548 5.014115
vn 1.0000 0.0000 0.0000
s off
f 58/1/19 59/1/19 57/1/19
f 58/1/19 60/1/19 59/1/19
o Plane.013
v 5.038281 -0.968535 1.003467
v 5.038281 0.068548 1.003467
v 5.038281 -0.968535 6.014115
v 5.038281 0.068548 6.014115
vn 1.0000 0.0000 0.0000
s off
f 62/1/20 63/1/20 61/1/20
f 62/1/20 64/1/20 63/1/20
o Plane.014
v -4.961719 -0.968535 5.007726
v -4.961719 0.068548 5.007726
v -4.961719 -0.968535 6.009856
v -4.961719 0.068548 6.009856
vn 1.0000 0.0000 0.0000
s off
f 66/1/21 67/1/21 65/1/21
f 66/1/21 68/1/21 67/1/21
o Plane.015
v -4.961719 -1.954629 1.003467
v -4.961719 -1.695358 1.003467
v -4.961719 -1.954629 6.014115
v -4.961719 -1.695358 6.014115
vn 1.0000 0.0000 0.0000
s off
f 70/1/22 71/1/22 69/1/22
f 70/1/22 72/1/22 71/1/22
o Plane.016
v -4.961719 -1.968535 0.007726
v -4.961719 -0.931452 0.007726
v -4.961719 -1.968535 1.009856
v -4.961719 -0.931452 1.009856
vn 1.0000 0.0000 0.0000
s off
f 74/1/23 75/1/23 73/1/23
f 74/1/23 76/1/23 75/1/23
o Plane.017
v -4.961719 -0.204629 0.003467
v -4.961719 0.054642 0.003467
v -4.961719 -0.204629 5.014115
v -4.961719 0.054642 5.014115
vn 1.0000 0.0000 0.0000
s off
f 78/1/24 79/1/24 77/1/24
f 78/1/24 80/1/24 79/1/24
o Plane.018
v -4.967043 -0.968535 0.008791
v -4.967043 0.068548 0.008791
v 0.043605 -0.968535 0.008791
v 0.043605 0.068549 0.008791
vn -0.0000 0.0000 -1.0000
s off
f 82/1/25 83/1/25 81/1/25
f 82/1/25 84/1/25 83/1/25
o Plane.019
v -4.967043 -1.968535 0.008791
v -4.967043 -0.931452 0.008791
v 0.043605 -1.968535 0.008791
v 0.043605 -0.931451 0.008791
vn -0.0000 0.0000 -1.0000
s off
f 86/1/26 87/1/26 85/1/26
f 86/1/26 88/1/26 87/1/26
o Plane.020
v -4.967043 -1.968535 6.008791
v -4.967043 -0.931452 6.008791
v 0.043605 -1.968535 6.008791
v 0.043605 -0.931451 6.008791
vn 0.0000 0.0000 -1.0000
s off
f 90/1/27 91/1/27 89/1/27
f 90/1/27 92/1/27 91/1/27
o Plane.021
v -4.967043 -0.968535 6.008791
v -4.967043 0.068548 6.008791
v 0.043605 -0.968535 6.008791
v 0.043605 0.068549 6.008791
vn -0.0000 0.0000 -1.0000
s off
f 94/1/28 95/1/28 93/1/28
f 94/1/28 96/1/28 95/1/28
o Plane.022
v 0.032957 -0.204629 6.008791
v 0.032957 0.054642 6.008791
v 5.043605 -0.204629 6.008791
v 5.043605 0.054642 6.008791
vn -0.0000 0.0000 -1.0000
s off
f 98/1/29 99/1/29 97/1/29
f 98/1/29 100/1/29 99/1/29
o Plane.023
v 0.032957 -1.954629 6.008791
v 0.032957 -1.695358 6.008791
v 5.043605 -1.954629 6.008791
v 5.043605 -1.695358 6.008791
vn 0.0000 0.0000 -1.0000
s off
f 102/1/30 103/1/30 101/1/30
f 102/1/30 104/1/30 103/1/30
o Plane.024
v 0.032957 -1.954629 -4.991209
v 0.032957 -1.695358 -4.991209
v 5.043605 -1.954629 -4.991209
v 5.043605 -1.695358 -4.991209
vn 0.0000 0.0000 -1.0000
s off
f 106/1/31 107/1/31 105/1/31
f 106/1/31 108/1/31 107/1/31
o Plane.025
v 0.032957 -0.204629 -4.991209
v 0.032957 0.054642 -4.991209
v 5.043605 -0.204629 -4.991209
v 5.043605 0.054642 -4.991209
vn -0.0000 0.0000 -1.0000
s off
f 110/1/32 111/1/32 109/1/32
f 110/1/32 112/1/32 111/1/32
o Plane.026
v 5.043903 -1.974993 -5.009666
v 0.033256 -1.974993 -5.009666
v 5.043903 -1.974993 0.000981
v 0.033256 -1.974993 0.000981
vn 0.0000 1.0000 0.0000
s off
f 114/1/33 115/1/33 113/1/33
f 114/1/33 116/1/33 115/1/33
o Plane.027
v 5.043903 -1.974993 0.003468
v 0.033256 -1.974993 0.003468
v 5.043903 -1.974993 5.014115
v 0.033256 -1.974993 5.014115
vn 0.0000 1.0000 0.0000
s off
f 118/1/34 119/1/34 117/1/34
f 118/1/34 120/1/34 119/1/34
o Plane.028
v 0.043605 -1.974993 0.972490
v -4.967043 -1.974993 0.972490
v 0.043605 -1.974993 5.983137
v -4.967043 -1.974993 5.983137
vn 0.0000 1.0000 0.0000
s off
f 122/1/35 123/1/35 121/1/35
f 122/1/35 124/1/35 123/1/35
o Plane.029
v 5.043903 -1.974993 0.995182
v 0.033256 -1.974993 0.995182
v 5.043903 -1.974993 6.005830
v 0.033256 -1.974993 6.005830
vn 0.0000 1.0000 0.0000
s off
f 126/1/36 127/1/36 125/1/36
f 126/1/36 128/1/36 127/1/36
o Plane.030
v 0.043605 -1.974993 0.003468
v -4.967043 -1.974993 0.003468
v 0.043605 -1.974993 5.014115
v -4.967043 -1.974993 5.014115
vn 0.0000 1.0000 0.0000
s off
f 130/1/37 131/1/37 129/1/37
f 130/1/37 132/1/37 131/1/37
o Plane.031
v 0.038281 -0.968535 0.007726
v 0.038281 0.068548 0.007726
v 0.038281 -0.968535 1.009856
v 0.038281 0.068548 1.009856
vn 1.0000 0.0000 0.0000
s off
f 134/1/38 135/1/38 133/1/38
f 134/1/38 136/1/38 135/1/38
o Plane.032
v 0.038281 -0.968535 1.007726
v 0.038281 0.068548 1.007726
v 0.038281 -0.968535 2.009856
v 0.038281 0.068548 2.009856
vn 1.0000 0.0000 0.0000
s off
f 138/1/39 139/1/39 137/1/39
f 138/1/39 140/1/39 139/1/39
o Plane.035
v 0.038281 -1.968535 1.007726
v 0.038281 -0.931452 1.007726
v 0.038281 -1.968535 2.009856
v 0.038281 -0.931452 2.009856
vn 1.0000 0.0000 0.0000
s off
f 142/1/40 143/1/40 141/1/40
f 142/1/40 144/1/40 143/1/40
o Plane.036
v 0.038281 -1.968535 0.007726
v 0.038281 -0.931452 0.007726
v 0.038281 -1.968535 1.009856
v 0.038281 -0.931452 1.009856
vn 1.0000 0.0000 0.0000
s off
f 146/1/41 147/1/41 145/1/41
f 146/1/41 148/1/41 147/1/41
o Plane.037
v 0.038281 -1.968535 4.057726
v 0.038281 -0.931452 4.057726
v 0.038281 -1.968535 5.059856
v 0.038281 -0.931452 5.059856
vn 1.0000 0.0000 0.0000
s off
f 150/1/42 151/1/42 149/1/42
f 150/1/42 152/1/42 151/1/42
o Plane.038
v 0.038281 -0.968535 4.057726
v 0.038281 0.068548 4.057726
v 0.038281 -0.968535 5.059856
v 0.038281 0.068548 5.059856
vn 1.0000 0.0000 0.0000
s off
f 154/1/43 155/1/43 153/1/43
f 154/1/43 156/1/43 155/1/43
o Plane.039
v 0.038281 -0.968535 5.007726
v 0.038281 0.068548 5.007726
v 0.038281 -0.968535 6.009856
v 0.038281 0.068548 6.009856
vn 1.0000 0.0000 0.0000
s off
f 158/1/44 159/1/44 157/1/44
f 158/1/44 160/1/44 159/1/44
o Plane.040
v 0.038281 -1.968535 5.007726
v 0.038281 -0.931452 5.007726
v 0.038281 -1.968535 6.009856
v 0.038281 -0.931452 6.009856
vn 1.0000 0.0000 0.0000
s off
f 162/1/45 163/1/45 161/1/45
f 162/1/45 164/1/45 163/1/45
o Plane.041
v 0.037216 -0.968535 0.008791
v 0.037216 0.068548 0.008791
v 1.039346 -0.968535 0.008791
v 1.039346 0.068549 0.008791
vn -0.0000 -0.0000 -1.0000
s off
f 166/1/46 167/1/46 165/1/46
f 166/1/46 168/1/46 167/1/46
o Plane.042
v 0.037216 -1.968535 0.008791
v 0.037216 -0.931452 0.008791
v 1.039346 -1.968535 0.008791
v 1.039346 -0.931451 0.008791
vn -0.0000 -0.0000 -1.0000
s off
f 169/1/47 172/1/47 171/1/47
f 169/1/47 170/1/47 172/1/47
o Plane.043
v 1.037216 -1.968535 0.008791
v 1.037216 -0.931452 0.008791
v 2.039346 -1.968535 0.008791
v 2.039346 -0.931451 0.008791
vn -0.0000 0.0000 -1.0000
s off
f 174/1/48 175/1/48 173/1/48
f 174/1/48 176/1/48 175/1/48
o Plane.044
v 1.037216 -0.968535 0.008791
v 1.037216 0.068548 0.008791
v 2.039346 -0.968535 0.008791
v 2.039346 0.068549 0.008791
vn -0.0000 0.0000 -1.0000
s off
f 178/1/49 179/1/49 177/1/49
f 178/1/49 180/1/49 179/1/49
o Plane.047
v 4.037216 -1.968535 0.008791
v 4.037216 -0.931452 0.008791
v 5.039346 -1.968535 0.008791
v 5.039346 -0.931451 0.008791
vn -0.0000 0.0000 -1.0000
s off
f 182/1/50 183/1/50 181/1/50
f 182/1/50 184/1/50 183/1/50
o Plane.048
v 4.037216 -0.968535 0.008791
v 4.037216 0.068548 0.008791
v 5.039346 -0.968535 0.008791
v 5.039346 0.068549 0.008791
vn -0.0000 0.0000 -1.0000
s off
f 186/1/51 187/1/51 185/1/51
f 186/1/51 188/1/51 187/1/51
o Plane.049
v -3.967043 -1.968535 6.008791
v -3.967043 -0.931452 6.008791
v 1.043605 -1.968535 6.008791
v 1.043605 -0.931451 6.008791
vn 0.0000 0.0000 -1.0000
s off
f 190/1/52 191/1/52 189/1/52
f 190/1/52 192/1/52 191/1/52
o Plane.050
v -3.967043 -0.968535 6.008791
v -3.967043 0.068548 6.008791
v 1.043605 -0.968535 6.008791
v 1.043605 0.068549 6.008791
vn -0.0000 0.0000 -1.0000
s off
f 194/1/53 195/1/53 193/1/53
f 194/1/53 196/1/53 195/1/53
o Plane.051
v 4.037216 -0.968535 6.008791
v 4.037216 0.068548 6.008791
v 5.039346 -0.968535 6.008791
v 5.039346 0.068549 6.008791
vn -0.0000 0.0000 -1.0000
s off
f 198/1/54 199/1/54 197/1/54
f 198/1/54 200/1/54 199/1/54
o Plane.052
v 3.037216 -0.968535 6.008791
v 3.037216 0.068548 6.008791
v 4.039346 -0.968535 6.008791
v 4.039346 0.068549 6.008791
vn -0.0000 0.0000 -1.0000
s off
f 202/1/55 203/1/55 201/1/55
f 202/1/55 204/1/55 203/1/55
o Plane.053
v 3.037216 -1.968535 6.008791
v 3.037216 -0.931452 6.008791
v 4.039346 -1.968535 6.008791
v 4.039346 -0.931451 6.008791
vn 0.0000 0.0000 -1.0000
s off
f 206/1/56 207/1/56 205/1/56
f 206/1/56 208/1/56 207/1/56
o Plane.054
v 4.037216 -1.968535 6.008791
v 4.037216 -0.931452 6.008791
v 5.039346 -1.968535 6.008791
v 5.039346 -0.931451 6.008791
vn 0.0000 0.0000 -1.0000
s off
f 210/1/57 211/1/57 209/1/57
f 210/1/57 212/1/57 211/1/57
o Plane.055
v -4.961719 -1.968535 1.007726
v -4.961719 -0.931452 1.007726
v -4.961719 -1.968535 2.009856
v -4.961719 -0.931452 2.009856
vn 1.0000 0.0000 0.0000
s off
f 214/1/58 215/1/58 213/1/58
f 214/1/58 216/1/58 215/1/58
o Plane.056
v -4.961719 -1.968535 5.007726
v -4.961719 -0.931452 5.007726
v -4.961719 -1.968535 6.009856
v -4.961719 -0.931452 6.009856
vn 1.0000 0.0000 0.0000
s off
f 218/1/59 219/1/59 217/1/59
f 218/1/59 220/1/59 219/1/59
o Plane.057
v -4.961719 -1.968535 4.007726
v -4.961719 -0.931452 4.007726
v -4.961719 -1.968535 5.009856
v -4.961719 -0.931452 5.009856
vn 1.0000 0.0000 0.0000
s off
f 222/1/60 223/1/60 221/1/60
f 222/1/60 224/1/60 223/1/60
o Plane.058
v -4.961719 -0.968535 4.007726
v -4.961719 0.068548 4.007726
v -4.961719 -0.968535 5.009856
v -4.961719 0.068548 5.009856
vn 1.0000 0.0000 0.0000
s off
f 226/1/61 227/1/61 225/1/61
f 226/1/61 228/1/61 227/1/61
o Plane.059
v -4.961719 -0.968535 1.007726
v -4.961719 0.068548 1.007726
v -4.961719 -0.968535 2.009856
v -4.961719 0.068548 2.009856
vn 1.0000 0.0000 0.0000
s off
f 230/1/62 231/1/62 229/1/62
f 230/1/62 232/1/62 231/1/62
o Plane.060
v -4.961719 -0.968535 0.007726
v -4.961719 0.068548 0.007726
v -4.961719 -0.968535 1.009856
v -4.961719 0.068548 1.009856
vn 1.0000 0.0000 0.0000
s off
f 234/1/63 235/1/63 233/1/63
f 234/1/63 236/1/63 235/1/63
o Plane.061
v 0.037216 -0.968535 -4.991209
v 0.037216 0.068548 -4.991209
v 1.039346 -0.968535 -4.991209
v 1.039346 0.068549 -4.991209
vn -0.0000 0.0000 -1.0000
s off
f 238/1/64 239/1/64 237/1/64
f 238/1/64 240/1/64 239/1/64
o Plane.062
v 4.037216 -0.968535 -4.991209
v 4.037216 0.068548 -4.991209
v 5.039346 -0.968535 -4.991209
v 5.039346 0.068549 -4.991209
vn -0.0000 0.0000 -1.0000
s off
f 242/1/65 243/1/65 241/1/65
f 242/1/65 244/1/65 243/1/65
o Plane.063
v 0.037216 -1.968535 -4.991209
v 0.037216 -0.931452 -4.991209
v 1.039346 -1.968535 -4.991209
v 1.039346 -0.931451 -4.991209
vn 0.0000 0.0000 -1.0000
s off
f 245/1/66 248/1/66 247/1/66
f 245/1/66 246/1/66 248/1/66
o Plane.064
v 4.037216 -1.968535 -4.991209
v 4.037216 -0.931452 -4.991209
v 5.039346 -1.968535 -4.991209
v 5.039346 -0.931451 -4.991209
vn 0.0000 0.0000 -1.0000
s off
f 250/1/67 251/1/67 249/1/67
f 250/1/67 252/1/67 251/1/67
o Cube.001
v 3.057487 -1.963363 0.108794
v 3.057487 0.036637 0.108794
v 3.057487 -1.963363 -0.091206
v 3.057487 0.036637 -0.091206
v 5.057487 -1.963363 0.108794
v 5.057487 0.036637 0.108794
v 5.057487 -1.963363 -0.091206
v 5.057487 0.036637 -0.091206
vn -1.0000 0.0000 0.0000
vn 0.0000 0.0000 -1.0000
vn 1.0000 0.0000 0.0000
vn 0.0000 0.0000 1.0000
vn 0.0000 -1.0000 0.0000
vn 0.0000 1.0000 0.0000
s off
f 254/1/68 255/1/68 253/1/68
f 256/1/69 259/1/69 255/1/69
f 260/1/70 257/1/70 259/1/70
f 258/1/71 253/1/71 257/1/71
f 259/1/72 253/1/72 255/1/72
f 256/1/73 258/1/73 260/1/73
f 254/1/68 256/1/68 255/1/68
f 256/1/69 260/1/69 259/1/69
f 260/1/70 258/1/70 257/1/70
f 258/1/71 254/1/71 253/1/71
f 259/1/72 257/1/72 253/1/72
f 256/1/73 254/1/73 258/1/73
o Cube.002
v 0.157488 -1.963363 2.008794
v 0.157488 0.036637 2.008794
v -0.042512 -1.963363 2.008794
v -0.042512 0.036637 2.008794
v 0.157487 -1.963363 0.008794
v 0.157487 0.036637 0.008794
v -0.042513 -1.963363 0.008794
v -0.042513 0.036637 0.008794
vn 0.0000 0.0000 1.0000
vn -1.0000 0.0000 0.0000
vn 0.0000 0.0000 -1.0000
vn 1.0000 0.0000 -0.0000
vn 0.0000 -1.0000 0.0000
vn 0.0000 1.0000 0.0000
s off
f 262/1/74 263/1/74 261/1/74
f 264/1/75 267/1/75 263/1/75
f 268/1/76 265/1/76 267/1/76
f 266/1/77 261/1/77 265/1/77
f 267/1/78 261/1/78 263/1/78
f 264/1/79 266/1/79 268/1/79
f 262/1/74 264/1/74 263/1/74
f 264/1/75 268/1/75 267/1/75
f 268/1/76 266/1/76 265/1/76
f 266/1/77 262/1/77 261/1/77
f 267/1/78 265/1/78 261/1/78
f 264/1/79 262/1/79 266/1/79
o Cube.003
v 0.157488 -1.963363 3.008794
v 0.157488 0.036637 3.008794
v -0.042512 -1.963363 3.008794
v -0.042512 0.036637 3.008794
v 0.157487 -1.963363 1.008794
v 0.157487 0.036637 1.008794
v -0.042513 -1.963363 1.008794
v -0.042513 0.036637 1.008794
vn 0.0000 0.0000 1.0000
vn -1.0000 0.0000 0.0000
vn 0.0000 0.0000 -1.0000
vn 1.0000 0.0000 -0.0000
vn 0.0000 -1.0000 0.0000
vn 0.0000 1.0000 0.0000
s off
f 270/1/80 271/1/80 269/1/80
f 272/1/81 275/1/81 271/1/81
f 276/1/82 273/1/82 275/1/82
f 274/1/83 269/1/83 273/1/83
f 275/1/84 269/1/84 271/1/84
f 272/1/85 274/1/85 276/1/85
f 270/1/80 272/1/80 271/1/80
f 272/1/81 276/1/81 275/1/81
f 276/1/82 274/1/82 273/1/82
f 274/1/83 270/1/83 269/1/83
f 275/1/84 273/1/84 269/1/84
f 272/1/85 270/1/85 274/1/85
o Cube.004
v 0.157488 -1.963363 6.008794
v 0.157488 0.036637 6.008794
v -0.042512 -1.963363 6.008794
v -0.042512 0.036637 6.008794
v 0.157487 -1.963363 4.008794
v 0.157487 0.036637 4.008794
v -0.042513 -1.963363 4.008794
v -0.042513 0.036637 4.008794
vn 0.0000 0.0000 1.0000
vn -1.0000 0.0000 0.0000
vn 0.0000 0.0000 -1.0000
vn 1.0000 0.0000 -0.0000
vn 0.0000 -1.0000 0.0000
vn 0.0000 1.0000 0.0000
s off
f 278/1/86 279/1/86 277/1/86
f 280/1/87 283/1/87 279/1/87
f 284/1/88 281/1/88 283/1/88
f 282/1/89 277/1/89 281/1/89
f 283/1/90 277/1/90 279/1/90
f 280/1/91 282/1/91 284/1/91
f 278/1/86 280/1/86 279/1/86
f 280/1/87 284/1/87 283/1/87
f 284/1/88 282/1/88 281/1/88
f 282/1/89 278/1/89 277/1/89
f 283/1/90 281/1/90 277/1/90
f 280/1/91 278/1/91 282/1/91
vt 0.0000 0.0000
