# Blender v2.78 (sub 0) OBJ File: 'table.blend'
# www.blender.org
o Plane
v -7.064790 0.046243 6.684562
v 6.426336 0.046243 6.684562
v -7.064790 0.046243 -6.806564
v 6.426336 0.046243 -6.806564
vn 0.0000 1.0000 0.0000
o Cube.002
v -1.345187 0.711542 -2.500723
v 1.802652 0.711543 -2.500723
v 1.802652 0.711542 1.987486
v -1.345188 0.711542 1.987484
v -1.345187 0.784943 -2.500724
v 1.802653 0.784944 -2.500721
v 1.802652 0.784944 1.987486
v -1.345187 0.784943 1.987485
v 1.870708 0.040406 1.975990
v 1.870708 0.040406 2.037345
v 1.291978 0.040406 2.037345
v 1.291978 0.040406 1.975990
v 1.870708 1.795997 1.975990
v 1.870708 1.795997 2.037345
v 1.291977 1.795997 2.037345
v 1.291978 1.795997 1.975990
v 1.806685 0.040406 2.037345
v 1.806685 0.040406 1.975990
v 1.806685 1.795997 2.037345
v 1.806685 1.795997 1.975990
v 1.806685 1.795997 1.430262
v 1.806685 0.040406 1.430262
v 1.870708 1.795997 1.430262
v 1.870708 0.040406 1.430262
v -1.363005 0.040405 2.033482
v -1.424359 0.040405 2.033482
v -1.424359 0.040405 1.454752
v -1.363005 0.040405 1.454752
v -1.363005 1.795997 2.033483
v -1.424359 1.795997 2.033482
v -1.424359 1.795997 1.454752
v -1.363005 1.795997 1.454752
v -1.424359 0.040405 1.969459
v -1.363005 0.040405 1.969459
v -1.424359 1.795997 1.969459
v -1.363005 1.795997 1.969459
v -0.817277 1.795997 1.969459
v -0.817277 0.040405 1.969459
v -0.817277 1.795997 2.033483
v -0.817277 0.040405 2.033482
v -1.415290 0.040405 -2.504446
v -1.415290 0.040405 -2.565800
v -0.836560 0.040405 -2.565800
v -0.836560 0.040405 -2.504446
v -1.415290 1.795997 -2.504446
v -1.415290 1.795997 -2.565800
v -0.836560 1.795997 -2.565800
v -0.836560 1.795997 -2.504446
v -1.351267 0.040405 -2.565800
v -1.351267 0.040405 -2.504446
v -1.351267 1.795997 -2.565800
v -1.351267 1.795997 -2.504446
v -1.351267 1.795997 -1.958718
v -1.351267 0.040405 -1.958718
v -1.415290 1.795997 -1.958718
v -1.415290 0.040405 -1.958718
v 1.804329 0.040406 -2.566019
v 1.865683 0.040406 -2.566019
v 1.865683 0.040406 -1.987288
v 1.804328 0.040406 -1.987289
v 1.804329 1.795997 -2.566019
v 1.865683 1.795997 -2.566019
v 1.865683 1.795997 -1.987288
v 1.804329 1.795997 -1.987288
v 1.865683 0.040406 -2.501996
v 1.804329 0.040406 -2.501996
v 1.865683 1.795997 -2.501996
v 1.804329 1.795997 -2.501996
v 1.258600 1.795997 -2.501996
v 1.258600 0.040406 -2.501996
v 1.258600 1.795997 -2.566019
v 1.258600 0.040406 -2.566019
v -0.634401 1.867565 2.036685
v 1.078746 1.867566 2.036685
v 1.078748 1.867566 -2.581091
v -0.634399 1.867566 -2.581093
v -0.634401 1.797476 2.036684
v 1.078746 1.797476 2.036684
v 1.078747 1.797477 -2.581092
v -0.634400 1.797476 -2.581092
v -1.433797 1.791975 -2.588498
v 1.878143 1.791975 -2.588498
v 1.878143 1.791975 2.044091
v -1.433797 1.791975 2.044090
v -1.433796 1.877540 -2.588500
v 1.878144 1.877540 -2.588497
v 1.878142 1.877540 2.044092
v -1.433797 1.877540 2.044091
v -0.629196 1.791975 -2.588498
v 1.073542 1.791975 -2.588498
v 1.073541 1.791975 2.044091
v -0.629197 1.791975 2.044090
v -0.629194 1.877540 -2.588498
v 1.073543 1.877540 -2.588498
v 1.073541 1.877540 2.044091
v -0.629196 1.877540 2.044091
vt 0.6569 0.5393
vt 0.0137 0.9904
vt 0.6569 0.9904
vt 0.0106 0.9921
vt 0.6582 0.5378
vt 0.6582 0.9921
vt 0.5280 0.6342
vt 0.1043 0.6166
vt 0.5280 0.6166
vt 0.6564 0.7100
vt 0.0044 0.6910
vt 0.6564 0.6910
vt 0.1161 0.6244
vt 0.5143 0.6410
vt 0.5143 0.6244
vt 0.6565 0.7116
vt 0.0034 0.6926
vt 0.0034 0.7116
vt 0.5322 0.8251
vt 0.1072 0.8515
vt 0.1072 0.8251
vt 0.5144 0.8189
vt 0.1182 0.7943
vt 0.1182 0.8189
vt 0.0236 0.5728
vt 0.0216 0.5988
vt 0.0236 0.6026
vt 0.0236 0.8429
vt 0.4839 0.6026
vt 0.4847 0.5687
vt 0.4839 0.5728
vt 0.4839 0.8429
vt 0.4847 0.5988
vt 0.0216 0.5687
vt 0.4847 0.8405
vt 0.5301 0.8215
vt 0.1085 0.5881
vt 0.1085 0.8215
vt 0.4765 0.6349
vt 0.0398 0.6065
vt 0.5322 0.5899
vt 0.0398 0.6349
vt 0.4765 0.6065
vt 0.5322 0.8251
vt 0.1072 0.8515
vt 0.1072 0.8251
vt 0.5144 0.8189
vt 0.1182 0.7943
vt 0.1182 0.8189
vt 0.0236 0.5728
vt 0.0216 0.5988
vt 0.0236 0.6026
vt 0.0216 0.8405
vt 0.4839 0.6026
vt 0.4847 0.5687
vt 0.4839 0.5728
vt 0.4839 0.8429
vt 0.4847 0.5988
vt 0.0216 0.5687
vt 0.4847 0.8405
vt 0.0236 0.8429
vt 0.5301 0.8215
vt 0.1085 0.5881
vt 0.1085 0.8215
vt 0.4765 0.6349
vt 0.0398 0.6065
vt 0.5322 0.5899
vt 0.0398 0.6349
vt 0.4765 0.6065
vt 0.5322 0.8251
vt 0.1072 0.8515
vt 0.1072 0.8251
vt 0.5144 0.8189
vt 0.1182 0.7943
vt 0.1182 0.8189
vt 0.0236 0.5728
vt 0.0216 0.5988
vt 0.0236 0.6026
vt 0.0236 0.8429
vt 0.4839 0.6026
vt 0.4847 0.5687
vt 0.4839 0.5728
vt 0.4839 0.8429
vt 0.4847 0.5988
vt 0.0216 0.5687
vt 0.0216 0.8405
vt 0.5301 0.8215
vt 0.1085 0.5881
vt 0.1085 0.8215
vt 0.4765 0.6349
vt 0.0398 0.6065
vt 0.5322 0.5899
vt 0.0398 0.6349
vt 0.4765 0.6065
vt 0.5322 0.8251
vt 0.1072 0.8515
vt 0.1072 0.8251
vt 0.5144 0.8189
vt 0.1182 0.7943
vt 0.1182 0.8189
vt 0.0236 0.5728
vt 0.0216 0.5988
vt 0.0236 0.6026
vt 0.0236 0.8429
vt 0.4839 0.6026
vt 0.4847 0.5687
vt 0.4839 0.5728
vt 0.4839 0.8429
vt 0.4847 0.5988
vt 0.0216 0.5687
vt 0.4847 0.8405
vt 0.5301 0.8215
vt 0.1085 0.5881
vt 0.1085 0.8215
vt 0.4765 0.6349
vt 0.0398 0.6065
vt 0.5322 0.5899
vt 0.0398 0.6349
vt 0.4765 0.6065
vt 0.9266 0.3256
vt 0.5512 0.2982
vt 0.5512 0.3256
vt 0.9485 0.3500
vt 0.5349 0.3199
vt 0.9485 0.3199
vt 0.5283 0.1030
vt 0.9869 0.4059
vt 0.5283 0.4059
vt 0.9850 0.4036
vt 0.5326 0.1047
vt 0.5326 0.4036
vt 0.9869 0.1030
vt 0.6371 0.7893
vt 0.0272 0.7404
vt 0.6371 0.7404
vt 0.6270 0.7800
vt 0.0502 0.7337
vt 0.0502 0.7800
vt 0.6452 0.7473
vt 0.0198 0.9407
vt 0.6452 0.9407
vt 0.6414 0.7484
vt 0.0160 0.9418
vt 0.6414 0.9418
vt 0.0145 0.9460
vt 0.6475 0.7502
vt 0.6475 0.9460
vt 0.0108 0.9396
vt 0.6438 0.7439
vt 0.6438 0.9396
vt 0.4004 0.6945
vt 0.6089 0.7340
vt 0.4004 0.7340
vt 0.2683 0.7272
vt 0.0598 0.6877
vt 0.2683 0.6877
vt 0.0741 0.7167
vt 0.2751 0.6787
vt 0.0741 0.6787
vt 0.5922 0.7235
vt 0.3912 0.6855
vt 0.3912 0.7235
vt 0.0137 0.5393
vt 0.0106 0.5378
vt 0.1043 0.6342
vt 0.0044 0.7100
vt 0.1161 0.6410
vt 0.6565 0.6926
vt 0.5322 0.8515
vt 0.5144 0.7943
vt 0.0216 0.8405
vt 0.5301 0.5881
vt 0.1072 0.5899
vt 0.5322 0.8515
vt 0.5144 0.7943
vt 0.5301 0.5881
vt 0.1072 0.5899
vt 0.5322 0.8515
vt 0.5144 0.7943
vt 0.4847 0.8405
vt 0.5301 0.5881
vt 0.1072 0.5899
vt 0.5322 0.8515
vt 0.5144 0.7943
vt 0.0216 0.8405
vt 0.5301 0.5881
vt 0.1072 0.5899
vt 0.9266 0.2982
vt 0.5349 0.3500
vt 0.9850 0.1047
vt 0.0272 0.7893
vt 0.6270 0.7337
vt 0.0198 0.7473
vt 0.0160 0.7484
vt 0.0145 0.7502
vt 0.0108 0.7439
vt 0.6089 0.6945
vt 0.0598 0.7272
vt 0.2751 0.7167
vt 0.5922 0.6855
vn 0.0000 -1.0000 -0.0000
vn -0.0000 1.0000 0.0000
vn -0.0000 -0.0000 -1.0000
vn 1.0000 -0.0000 -0.0000
vn -0.0000 -0.0000 1.0000
vn -1.0000 0.0000 -0.0000
s off
f 6/1/2 8/2/2 5/3/2
f 12/4/3 10/5/3 9/6/3
f 9/7/4 6/8/4 5/9/4
f 10/10/5 7/11/5 6/12/5
f 7/13/6 12/14/6 8/15/6
f 9/16/7 8/17/7 12/18/7
f 17/19/5 14/20/5 13/21/5
f 19/22/7 16/23/7 15/24/7
f 13/25/2 21/26/2 22/27/2
f 21/26/2 16/28/2 22/27/2
f 24/29/3 18/30/3 17/31/3
f 20/32/3 23/33/3 24/29/3
f 23/33/6 14/34/6 18/30/6
f 19/35/6 21/26/6 23/33/6
f 22/27/4 20/32/4 24/29/4
f 24/36/7 26/37/7 22/38/7
f 17/31/3 25/39/3 24/29/3
f 22/27/2 28/40/2 13/25/2
f 13/21/5 27/41/5 17/19/5
f 26/42/4 27/43/4 28/40/4
f 33/44/6 30/45/6 29/46/6
f 35/47/4 32/48/4 31/49/4
f 29/50/2 37/51/2 38/52/2
f 31/53/2 38/52/2 37/51/2
f 40/54/3 34/55/3 33/56/3
f 36/57/3 39/58/3 40/54/3
f 39/58/7 30/59/7 34/55/7
f 35/60/7 37/51/7 39/58/7
f 32/61/5 40/54/5 38/52/5
f 40/62/4 42/63/4 38/64/4
f 33/56/3 41/65/3 40/54/3
f 38/52/2 44/66/2 29/50/2
f 29/46/6 43/67/6 33/44/6
f 42/68/5 43/69/5 44/66/5
f 49/70/7 46/71/7 45/72/7
f 51/73/5 48/74/5 47/75/5
f 45/76/2 53/77/2 54/78/2
f 53/77/2 48/79/2 54/78/2
f 56/80/3 50/81/3 49/82/3
f 52/83/3 55/84/3 56/80/3
f 55/84/4 46/85/4 50/81/4
f 55/84/4 47/86/4 53/77/4
f 48/79/6 56/80/6 54/78/6
f 56/87/5 58/88/5 54/89/5
f 49/82/3 57/90/3 56/80/3
f 54/78/2 60/91/2 45/76/2
f 45/72/7 59/92/7 49/70/7
f 58/93/6 59/94/6 60/91/6
f 65/95/4 62/96/4 61/97/4
f 67/98/6 64/99/6 63/100/6
f 61/101/2 69/102/2 70/103/2
f 69/102/2 64/104/2 70/103/2
f 72/105/3 66/106/3 65/107/3
f 68/108/3 71/109/3 72/105/3
f 71/109/5 62/110/5 66/106/5
f 67/111/5 69/102/5 71/109/5
f 64/104/7 72/105/7 70/103/7
f 72/112/6 74/113/6 70/114/6
f 65/107/3 73/115/3 72/105/3
f 70/103/2 76/116/2 61/101/2
f 61/97/4 75/117/4 65/95/4
f 74/118/7 75/119/7 76/116/7
f 77/120/6 82/121/6 78/122/6
f 80/123/4 83/124/4 84/125/4
f 78/126/3 80/127/3 77/128/3
f 84/129/2 82/130/2 81/131/2
f 82/130/5 79/132/5 78/126/5
f 80/127/7 81/131/7 77/128/7
f 90/133/5 87/134/5 86/135/5
f 89/136/7 88/137/7 92/138/7
f 93/139/2 88/140/2 85/141/2
f 86/142/2 95/143/2 94/144/2
f 92/145/3 97/146/3 89/147/3
f 99/148/3 90/149/3 98/150/3
f 93/151/4 89/152/4 97/153/4
f 98/154/4 86/155/4 94/156/4
f 91/157/6 95/158/6 87/159/6
f 92/160/6 96/161/6 100/162/6
f 6/1/2 7/163/2 8/2/2
f 12/4/3 11/164/3 10/5/3
f 9/7/4 10/165/4 6/8/4
f 10/10/5 11/166/5 7/11/5
f 7/13/6 11/167/6 12/14/6
f 9/16/7 5/168/7 8/17/7
f 17/19/5 18/169/5 14/20/5
f 19/22/7 20/170/7 16/23/7
f 13/25/2 14/34/2 21/26/2
f 21/26/2 15/171/2 16/28/2
f 24/29/3 23/33/3 18/30/3
f 20/32/3 19/35/3 23/33/3
f 23/33/6 21/26/6 14/34/6
f 19/35/6 15/171/6 21/26/6
f 22/27/4 16/28/4 20/32/4
f 24/36/7 25/172/7 26/37/7
f 17/31/3 27/43/3 25/39/3
f 22/27/2 26/42/2 28/40/2
f 13/21/5 28/173/5 27/41/5
f 26/42/4 25/39/4 27/43/4
f 33/44/6 34/174/6 30/45/6
f 35/47/4 36/175/4 32/48/4
f 29/50/2 30/59/2 37/51/2
f 31/53/2 32/61/2 38/52/2
f 40/54/3 39/58/3 34/55/3
f 36/57/3 35/60/3 39/58/3
f 39/58/7 37/51/7 30/59/7
f 35/60/7 31/53/7 37/51/7
f 32/61/5 36/57/5 40/54/5
f 40/62/4 41/176/4 42/63/4
f 33/56/3 43/69/3 41/65/3
f 38/52/2 42/68/2 44/66/2
f 29/46/6 44/177/6 43/67/6
f 42/68/5 41/65/5 43/69/5
f 49/70/7 50/178/7 46/71/7
f 51/73/5 52/179/5 48/74/5
f 45/76/2 46/85/2 53/77/2
f 53/77/2 47/86/2 48/79/2
f 56/80/3 55/84/3 50/81/3
f 52/83/3 51/180/3 55/84/3
f 55/84/4 53/77/4 46/85/4
f 55/84/4 51/180/4 47/86/4
f 48/79/6 52/83/6 56/80/6
f 56/87/5 57/181/5 58/88/5
f 49/82/3 59/94/3 57/90/3
f 54/78/2 58/93/2 60/91/2
f 45/72/7 60/182/7 59/92/7
f 58/93/6 57/90/6 59/94/6
f 65/95/4 66/183/4 62/96/4
f 67/98/6 68/184/6 64/99/6
f 61/101/2 62/110/2 69/102/2
f 69/102/2 63/185/2 64/104/2
f 72/105/3 71/109/3 66/106/3
f 68/108/3 67/111/3 71/109/3
f 71/109/5 69/102/5 62/110/5
f 67/111/5 63/185/5 69/102/5
f 64/104/7 68/108/7 72/105/7
f 72/112/6 73/186/6 74/113/6
f 65/107/3 75/119/3 73/115/3
f 70/103/2 74/118/2 76/116/2
f 61/97/4 76/187/4 75/117/4
f 74/118/7 73/115/7 75/119/7
f 77/120/6 81/188/6 82/121/6
f 80/123/4 79/189/4 83/124/4
f 78/126/3 79/132/3 80/127/3
f 84/129/2 83/190/2 82/130/2
f 82/130/5 83/190/5 79/132/5
f 80/127/7 84/129/7 81/131/7
f 90/133/5 91/191/5 87/134/5
f 89/136/7 85/192/7 88/137/7
f 93/139/2 96/193/2 88/140/2
f 86/142/2 87/194/2 95/143/2
f 92/145/3 100/195/3 97/146/3
f 99/148/3 91/196/3 90/149/3
f 93/151/4 85/197/4 89/152/4
f 98/154/4 90/198/4 86/155/4
f 91/157/6 99/199/6 95/158/6
f 92/160/6 88/200/6 96/161/6
